# xmcd
#
# Track frame offsets: 
#        150
#        20164
#        33676
#        41749
#        62679
#        80955
#        101676
#        115416
#        128701
#        140971
#
# Disc length: 2099 seconds
#
# Revision: 4
# Processed by: cddbd v1.5.2PL0 Copyright (c) Steve Scherf et al.
# Submitted via: ExactAudioCopyFreeDBPlugin 1.0
#
DISCID=9b08310a
DTITLE=Hopscotch <跳房子> - A Wishful Way <希望森林>
DYEAR=2002
DGENRE=Pop
TTITLE0=A Wishful Way
TTITLE1=Soldier
TTITLE2=Sometimes
TTITLE3=A Faker
TTITLE4=Animal Fazenda
TTITLE5=When I Think Of You
TTITLE6=She
TTITLE7=Fragile Inside
TTITLE8=Try To
TTITLE9=Swim
EXTD=YEAR: 2002
EXTT0=
EXTT1=
EXTT2=
EXTT3=
EXTT4=
EXTT5=
EXTT6=
EXTT7=
EXTT8=
EXTT9=
PLAYORDER=
